<svg width="16" height="16" viewBox="0 0 16 16" fill="none" xmlns="http://www.w3.org/2000/svg">
<g id="&#230;&#143;&#144;&#231;&#164;&#186;-&#229;&#156;&#134;-&#229;&#161;&#171;&#229;&#133;&#133;">
<path id="icon" d="M8.00065 14.6668C11.6826 14.6668 14.6673 11.6821 14.6673 8.00016C14.6673 4.31826 11.6826 1.3335 8.00065 1.3335C4.31875 1.3335 1.33398 4.31826 1.33398 8.00016C1.33398 11.6821 4.31875 14.6668 8.00065 14.6668ZM8.66732 5.3335C8.66732 5.70169 8.36884 6.00016 8.00065 6.00016C7.63246 6.00016 7.33398 5.70169 7.33398 5.3335C7.33398 4.96531 7.63246 4.66683 8.00065 4.66683C8.36884 4.66683 8.66732 4.96531 8.66732 5.3335ZM8.00065 11.3335C7.63246 11.3335 7.33398 11.035 7.33398 10.6668L7.33398 7.3335C7.33398 6.96531 7.63246 6.66683 8.00065 6.66683C8.36884 6.66683 8.66732 6.96531 8.66732 7.3335V10.6668C8.66732 11.035 8.36884 11.3335 8.00065 11.3335Z" fill="#38A8FE"/>
</g>
</svg>
