<svg width="16" height="16" viewBox="0 0 16 16" fill="none" xmlns="http://www.w3.org/2000/svg">
<g id="&#231;&#148;&#168;&#230;&#136;&#183;">
<g id="icon">
<path d="M8 1.3335C6.15905 1.3335 4.66667 2.82588 4.66667 4.66683C4.66667 6.50778 6.15905 8.00016 8 8.00016C9.84095 8.00016 11.3333 6.50778 11.3333 4.66683C11.3333 2.82588 9.84095 1.3335 8 1.3335ZM6 4.66683C6 3.56226 6.89543 2.66683 8 2.66683C9.10457 2.66683 10 3.56226 10 4.66683C10 5.7714 9.10457 6.66683 8 6.66683C6.89543 6.66683 6 5.7714 6 4.66683Z" fill="#757D80"/>
<path d="M8 8.66683C9.45385 8.66683 10.8832 8.78165 11.9701 9.17089C12.5185 9.36728 13.0254 9.64924 13.3995 10.0638C13.7867 10.4931 14 11.0305 14 11.6581C14 12.2846 13.7888 12.8224 13.4039 13.2532C13.0318 13.6698 12.5267 13.9546 11.9788 14.1536C10.893 14.5479 9.46276 14.6668 8 14.6668C6.54615 14.6668 5.11677 14.552 4.02988 14.1628C3.4815 13.9664 2.97461 13.6844 2.60052 13.2698C2.21325 12.8406 2 12.3032 2 11.6756C2 11.049 2.21124 10.5113 2.59611 10.0804C2.96824 9.66385 3.47327 9.37908 4.02123 9.18009C5.10704 8.78578 6.53724 8.66683 8 8.66683ZM12.6667 11.6581C12.6667 11.356 12.5728 11.138 12.4095 10.957C12.2331 10.7615 11.946 10.5785 11.5206 10.4262C10.6599 10.1179 9.42264 10.0002 8 10.0002C6.57065 10.0002 5.33418 10.1218 4.47635 10.4333C4.0525 10.5873 3.76646 10.7717 3.59048 10.9687C3.42725 11.1514 3.33333 11.3717 3.33333 11.6756C3.33333 11.9776 3.42718 12.1957 3.59046 12.3766C3.76692 12.5722 4.05403 12.7552 4.47942 12.9075C5.34007 13.2157 6.57736 13.3335 8 13.3335C9.42935 13.3335 10.6658 13.2118 11.5237 12.9003C11.9475 12.7464 12.2335 12.562 12.4095 12.365C12.5728 12.1822 12.6667 11.962 12.6667 11.6581Z" fill="#757D80"/>
</g>
</g>
</svg>
