<svg width="24" height="24" viewBox="0 0 24 24" fill="none" xmlns="http://www.w3.org/2000/svg">
<g id="&#229;&#156;&#134;&#230;&#150;&#185;&#229;&#144;&#145;&#231;&#174;&#173;&#229;&#164;&#180;-&#229;&#143;&#179;" opacity="0.4">
<g id="Union">
<path d="M5.99951 11.9995C5.99951 12.5518 6.44723 12.9995 6.99951 12.9995L14.5862 12.9995L12.0507 15.535C11.6601 15.9256 11.6601 16.5587 12.0507 16.9493C12.4412 17.3398 13.0744 17.3398 13.4649 16.9493L17.7075 12.7066C18.098 12.3161 18.098 11.6829 17.7075 11.2924L13.4649 7.04977C13.0744 6.65924 12.4412 6.65924 12.0507 7.04977C11.6601 7.44029 11.6601 8.07345 12.0507 8.46398L14.5862 10.9995L6.99951 10.9995C6.44723 10.9995 5.99951 11.4472 5.99951 11.9995Z" fill="#98A1A4"/>
<path fill-rule="evenodd" clip-rule="evenodd" d="M2 12C2 6.47715 6.47715 2 12 2C17.5228 2 22 6.47715 22 12C22 17.5228 17.5228 22 12 22C6.47715 22 2 17.5228 2 12ZM12 4C7.58172 4 4 7.58172 4 12C4 16.4183 7.58172 20 12 20C16.4183 20 20 16.4183 20 12C20 7.58172 16.4183 4 12 4Z" fill="#98A1A4"/>
</g>
</g>
</svg>
