<svg width="20" height="20" viewBox="0 0 20 20" fill="none" xmlns="http://www.w3.org/2000/svg">
<g id="&#229;&#136;&#160;&#233;&#153;&#164;">
<path id="icon" d="M6.66666 2.49984C6.66666 2.0396 7.03976 1.6665 7.49999 1.6665H12.5C12.9602 1.6665 13.3333 2.0396 13.3333 2.49984C13.3333 2.96007 12.9602 3.33317 12.5 3.33317H7.49999C7.03976 3.33317 6.66666 2.96007 6.66666 2.49984ZM1.66666 4.9999C1.66666 4.53967 2.03975 4.16657 2.49999 4.16657H17.5C17.9602 4.16657 18.3333 4.53967 18.3333 4.9999C18.3333 5.46014 17.9602 5.83324 17.5 5.83324H16.6089L15.821 16.7861C15.7583 17.658 15.0327 18.3332 14.1587 18.3332L5.84132 18.3332C4.96725 18.3332 4.24166 17.658 4.17895 16.7861L3.39111 5.83324H2.49999C2.03975 5.83324 1.66666 5.46014 1.66666 4.9999ZM5.06208 5.83324L5.84132 16.6666L14.1587 16.6666L14.9379 5.83324H5.06208ZM8.33333 7.49984C8.79356 7.49984 9.16666 7.87294 9.16666 8.33317V14.1665C9.16666 14.6267 8.79356 14.9998 8.33333 14.9998C7.87309 14.9998 7.49999 14.6267 7.49999 14.1665V8.33317C7.49999 7.87294 7.87309 7.49984 8.33333 7.49984ZM11.6667 7.49984C12.1269 7.49984 12.5 7.87294 12.5 8.33317V14.1665C12.5 14.6267 12.1269 14.9998 11.6667 14.9998C11.2064 14.9998 10.8333 14.6267 10.8333 14.1665V8.33317C10.8333 7.87294 11.2064 7.49984 11.6667 7.49984Z" fill="#757D80"/>
</g>
</svg>
