<svg width="36" height="36" viewBox="0 0 36 36" fill="none" xmlns="http://www.w3.org/2000/svg">
<g id="icon_&#230;&#137;&#139;&#230;&#156;&#186;&#229;&#186;&#148;&#231;&#148;&#168;">
<g id="Rectangle 5953" filter="url(#filter0_b_84_1145)">
<rect width="13.9998" height="19.0127" rx="3" transform="matrix(-0.00578847 -0.999983 -0.999983 0.00578847 21.5605 19.9548)" fill="url(#paint0_linear_84_1145)" fill-opacity="0.5"/>
</g>
<g id="Group 82">
<g id="Rectangle 1954" filter="url(#filter1_b_84_1145)">
<rect x="6" y="10" width="27" height="20" rx="3" fill="url(#paint1_linear_84_1145)" fill-opacity="0.8"/>
</g>
<path id="Union" fill-rule="evenodd" clip-rule="evenodd" d="M19.9393 14.4393C20.5251 13.8536 21.4749 13.8536 22.0607 14.4393L24.5607 16.9393C24.7045 17.0832 24.813 17.2489 24.8862 17.4258C24.9595 17.6027 25 17.7966 25 18C25 18.2034 24.9595 18.3973 24.8862 18.5742C24.8135 18.7498 24.7061 18.9144 24.5638 19.0575L24.5575 19.0638C24.4144 19.2061 24.2498 19.3135 24.0742 19.3862C23.8973 19.4595 23.7034 19.5 23.5 19.5H16.5C15.6716 19.5 15 18.8284 15 18C15 17.1716 15.6716 16.5 16.5 16.5H19.8819C19.3542 15.911 19.3734 15.0053 19.9393 14.4393ZM15.1138 21.9258C15.0405 22.1027 15 22.2966 15 22.5C15 22.7034 15.0405 22.8973 15.1138 23.0742C15.187 23.2511 15.2955 23.4168 15.4393 23.5607L17.9393 26.0607C18.5251 26.6464 19.4749 26.6464 20.0607 26.0607C20.6266 25.4947 20.6458 24.589 20.1181 24H23.5C24.3284 24 25 23.3284 25 22.5C25 21.6716 24.3284 21 23.5 21H16.5006H16.5C16.4985 21 16.497 21 16.4955 21C16.1131 21.0011 15.7311 21.1476 15.4393 21.4393C15.2955 21.5832 15.187 21.7489 15.1138 21.9258Z" fill="white"/>
</g>
</g>
<defs>
<filter id="filter0_b_84_1145" x="-3.91556" y="-0.427344" width="31.8588" height="26.875" filterUnits="userSpaceOnUse" color-interpolation-filters="sRGB">
<feFlood flood-opacity="0" result="BackgroundImageFix"/>
<feGaussianBlur in="BackgroundImageFix" stdDeviation="3.2"/>
<feComposite in2="SourceAlpha" operator="in" result="effect1_backgroundBlur_84_1145"/>
<feBlend mode="normal" in="SourceGraphic" in2="effect1_backgroundBlur_84_1145" result="shape"/>
</filter>
<filter id="filter1_b_84_1145" x="4" y="8" width="31" height="24" filterUnits="userSpaceOnUse" color-interpolation-filters="sRGB">
<feFlood flood-opacity="0" result="BackgroundImageFix"/>
<feGaussianBlur in="BackgroundImageFix" stdDeviation="1"/>
<feComposite in2="SourceAlpha" operator="in" result="effect1_backgroundBlur_84_1145"/>
<feBlend mode="normal" in="SourceGraphic" in2="effect1_backgroundBlur_84_1145" result="shape"/>
</filter>
<linearGradient id="paint0_linear_84_1145" x1="-9.05797e-08" y1="19.0127" x2="33.0794" y2="-3.49444" gradientUnits="userSpaceOnUse">
<stop stop-color="#C1E4FF"/>
<stop offset="1" stop-color="#39A8FF"/>
</linearGradient>
<linearGradient id="paint1_linear_84_1145" x1="34.6875" y1="13.3333" x2="10.2511" y2="36.9067" gradientUnits="userSpaceOnUse">
<stop offset="0.015061" stop-color="#438EFF"/>
<stop offset="0.936297" stop-color="#88B8FF"/>
</linearGradient>
</defs>
</svg>
