<svg width="40" height="40" viewBox="0 0 40 40" fill="none" xmlns="http://www.w3.org/2000/svg">
<g id="ico_&#232;&#161;&#168;&#230;&#137;&#172;">
<path id="Vector" d="M23.0002 15.5V9.50002C23.0002 7.01472 20.9855 5 18.5002 5L17.9304 7.5898C17.0993 11.3674 15.4029 14.9006 12.9748 17.9115L12.5002 18.5V35H29.9302C31.4261 35.0169 32.706 33.9291 32.9302 32.45L35.0002 18.95C35.1323 18.0798 34.8755 17.1954 34.298 16.5313C33.7205 15.8671 32.8804 15.49 32.0002 15.5H23.0002Z" fill="#FFD796"/>
<path id="Vector_2" d="M12.5 18.3335H8.495C6.73777 18.3024 5.23558 19.758 5 21.4996V31.9996C5.23558 33.7412 6.73777 35.0307 8.495 34.9996H12.5V18.3335Z" fill="#F76560"/>
</g>
</svg>
