<svg width="24" height="24" viewBox="0 0 24 24" fill="none" xmlns="http://www.w3.org/2000/svg">
<path fill-rule="evenodd" clip-rule="evenodd" d="M7 3.5C7 2.94772 7.44772 2.5 8 2.5C8.55228 2.5 9 2.94772 9 3.5V4.5H15V3.5C15 2.94772 15.4477 2.5 16 2.5C16.5523 2.5 17 2.94772 17 3.5V5.5V7.5C17 8.05228 16.5523 8.5 16 8.5C15.4477 8.5 15 8.05228 15 7.5V6.5H9V7.5C9 8.05228 8.55228 8.5 8 8.5C7.44772 8.5 7 8.05228 7 7.5V5.5V3.5ZM19.056 6.5C18.5037 6.5 18.056 6.05228 18.056 5.5C18.056 4.94772 18.5037 4.5 19.056 4.5H20C21.1046 4.5 22 5.39543 22 6.5V19.5C22 20.6046 21.1046 21.5 20 21.5H4C2.89543 21.5 2 20.6046 2 19.5V6.5C2 5.39543 2.89543 4.5 4 4.5H5.017C5.56928 4.5 6.017 4.94772 6.017 5.5C6.017 6.05228 5.56928 6.5 5.017 6.5H4V19.5H20V6.5H19.056Z" fill="#38A8FE"/>
<path d="M15.3228 10.2642C15.7291 9.89021 16.3617 9.91642 16.7358 10.3228C17.0901 10.7077 17.0852 11.2958 16.7382 11.6746L16.6772 11.7358L11.7884 16.2358C11.4269 16.5685 10.8814 16.587 10.4995 16.2912L10.4339 16.2358L7.32277 13.3721C6.91642 12.9981 6.89021 12.3655 7.26424 11.9591C7.61858 11.5742 8.20502 11.5304 8.61127 11.8449L8.67724 11.9006L11.111 14.1405L15.3228 10.2642Z" fill="#FFCB66"/>
</svg>
