<svg width="26" height="24" viewBox="0 0 26 24" fill="none" xmlns="http://www.w3.org/2000/svg">
<g id="icon/&#231;&#130;&#185;&#232;&#175;&#132;&#233;&#161;&#185;">
<path id="Vector 15" d="M11 13.5C11 13.5 11.5 15 13 15C14.5 15 15 13.5 15 13.5" stroke="#FFCB66" stroke-width="2" stroke-linecap="round"/>
<path id="Star 6 (Stroke)" fill-rule="evenodd" clip-rule="evenodd" d="M11.3503 1.1384C12.1447 -0.0207443 13.8553 -0.0207421 14.6497 1.1384L18.2333 6.36719C18.5455 6.82275 18.4293 7.44516 17.9737 7.75738C17.5182 8.0696 16.8957 7.95339 16.5835 7.49783L13 2.26904L9.61752 7.2045C9.35745 7.58397 8.97453 7.86218 8.53328 7.99225L2.79413 9.68404L6.44278 14.4261C6.72331 14.7907 6.86957 15.2409 6.85693 15.7007L6.69243 21.6818L12.3299 19.6771C12.7633 19.5229 13.2367 19.5229 13.6701 19.6771L19.3076 21.6818L19.1431 15.7007C19.1304 15.2409 19.2767 14.7907 19.5572 14.4261L23.2059 9.68404L21.7864 9.2656C21.2566 9.10944 20.9538 8.5534 21.1099 8.02365C21.2661 7.4939 21.8221 7.19105 22.3519 7.34721L23.7714 7.76566C25.1193 8.163 25.6479 9.78993 24.791 10.9037L21.1423 15.6457L21.3068 21.6268C21.3455 23.0315 19.9615 24.037 18.6375 23.5662L13 21.5615L7.36252 23.5662C6.0385 24.037 4.65455 23.0315 4.69318 21.6268L4.85768 15.6457L1.20903 10.9037C0.352101 9.78993 0.880725 8.163 2.22862 7.76566L7.96777 6.07386L11.3503 1.1384Z" fill="#38A8FE"/>
</g>
</svg>
