<svg xmlns="http://www.w3.org/2000/svg" xmlns:xlink="http://www.w3.org/1999/xlink" fill="none" version="1.1" width="32" height="32" viewBox="0 0 32 32"><defs><clipPath id="master_svg0_213_46222"><rect x="6" y="6" width="20" height="20" rx="0"/></clipPath></defs><g><g style="opacity:0;"><rect x="0" y="0" width="32" height="32" rx="2" fill="#000000" fill-opacity="0.05000000074505806"/></g><g clip-path="url(#master_svg0_213_46222)"><g><path d="M16.0003221875,24.333371752929686C11.397822187500001,24.333371752929686,7.6669921875,20.602471752929688,7.6669921875,16.000001752929688C7.6669921875,11.397501752929688,11.397822187500001,7.6666717529296875,16.0003221875,7.6666717529296875C20.6027921875,7.6666717529296875,24.3336921875,11.397501752929688,24.3336921875,16.000001752929688C24.3336921875,20.602471752929688,20.6027921875,24.333371752929686,16.0003221875,24.333371752929686ZM16.0003221875,14.821671752929689L13.6436621875,12.464171752929687L12.4644921875,13.643341752929688L14.821992187500001,16.000001752929688L12.4644921875,18.356671752929685L13.6436621875,19.535871752929687L16.0003221875,17.17834175292969L18.356992187499998,19.535871752929687L19.5361921875,18.356671752929685L17.178662187500002,16.000001752929688L19.5361921875,13.643341752929688L18.356992187499998,12.464171752929687L16.0003221875,14.821671752929689Z" fill="#000000" fill-opacity="0.20000000298023224"/></g></g></g></svg>