<?xml version="1.0" standalone="no"?>
<!DOCTYPE svg PUBLIC "-//W3C//DTD SVG 1.1//EN" "http://www.w3.org/Graphics/SVG/1.1/DTD/svg11.dtd">
<svg xmlns="http://www.w3.org/2000/svg">
<metadata>Copyright (C) 2019 by original authors @ fontello.com</metadata>
<defs>
<font id="fontello" horiz-adv-x="1000" >
<font-face font-family="fontello" font-weight="400" font-stretch="normal" units-per-em="1000" ascent="850" descent="-150" />
<missing-glyph horiz-adv-x="1000" />
<glyph glyph-name="windows" unicode="&#xec00;" d="M381 289v-364l-381 53v311h381z m0 414v-367h-381v315z m548-414v-439l-507 70v369h507z m0 490v-443h-507v373z" horiz-adv-x="928.6" />

<glyph glyph-name="android" unicode="&#xec01;" d="M275 581q9 0 16 6t6 15-6 16-16 6-15-6-6-16 6-15 15-6z m236 0q9 0 15 6t6 15-6 16-15 6-16-6-6-16 6-15 16-6z m-453-103q23 0 40-17t16-40v-240q0-24-16-41t-40-17-41 17-17 41v240q0 23 17 40t41 17z m591-11v-371q0-26-18-44t-43-18h-42v-127q0-24-16-40t-41-17-41 17-17 40v127h-77v-127q0-24-16-40t-41-17q-24 0-40 17t-17 40l-1 127h-41q-26 0-43 18t-18 44v371h512z m-129 226q59-30 95-85t36-121h-516q0 66 35 121t96 85l-39 73q-4 8 2 12 8 3 12-4l40-74q53 24 112 24t112-24l40 74q4 7 11 4 7-4 3-12z m266-272v-240q0-24-17-41t-41-17q-23 0-40 17t-17 41v240q0 24 17 40t40 17q24 0 41-17t17-40z" horiz-adv-x="785.7" />

<glyph glyph-name="apple" unicode="&#xec02;" d="M777 172q-21-70-68-139-72-110-144-110-27 0-78 18-48 18-84 18-34 0-79-19-45-19-74-19-85 0-168 145-82 146-82 281 0 127 63 208 63 81 159 81 40 0 98-17 58-17 77-17 25 0 80 19 57 19 97 19 66 0 119-36 29-20 58-56-44-37-64-66-36-52-36-115 0-69 38-125t88-70z m-209 655q0-34-17-76-16-42-52-77-30-30-60-40-20-7-58-10 2 83 44 143 41 60 139 83 1-2 2-6t1-6q0-2 0-6t1-5z" horiz-adv-x="785.7" />

<glyph glyph-name="cancel-circle" unicode="&#xec03;" d="M1000 349q0-136-67-251t-182-182-251-67-251 67-182 182-67 251 67 251 182 182 251 67 251-67 182-182 67-251z m-339-232l71 71-161 161 161 161-71 71-161-161-161 161-71-71 161-161-161-161 71-71 161 161z" horiz-adv-x="1000" />

<glyph glyph-name="cancel" unicode="&#xec04;" d="M452 194q18-18 18-43t-18-43q-18-16-43-16t-43 16l-132 152-132-152q-18-16-43-16t-43 16q-16 18-16 43t16 43l138 156-138 158q-16 18-16 43t16 43q18 16 43 16t43-16l132-152 132 152q18 16 43 16t43-16q18-18 18-43t-18-43l-138-158z" horiz-adv-x="470" />

<glyph glyph-name="dollar" unicode="&#xec05;" d="M546 189q0-86-56-147t-144-77v-97q0-8-5-13t-13-5h-75q-7 0-13 5t-5 13v97q-37 5-71 18t-57 25-41 26-26 21-10 10q-9 12-1 23l58 76q3 5 12 6 9 1 14-5l1-1q63-55 135-70 21-4 42-4 45 0 79 24t35 68q0 16-9 30t-18 23-33 21-37 18-45 18q-21 9-34 14t-34 15-35 17-32 20-29 24-25 27-20 32-11 37-5 44q0 77 55 135t142 75v100q0 7 5 13t13 5h75q8 0 13-5t5-13v-98q32-3 62-13t48-19 36-20 21-17 9-7q9-11 3-22l-46-81q-4-9-12-9-8-2-15 4-2 2-9 7t-21 14-33 18-42 15-47 6q-53 0-87-24t-33-62q0-14 4-27t17-23 22-18 31-18 34-15 39-15q30-11 45-17t43-20 42-24 34-28 30-35 18-43 7-52z" horiz-adv-x="571.4" />

<glyph glyph-name="ok" unicode="&#xec06;" d="M0 339q0-35 24-60l246-239q24-25 60-25 36 0 60 25l505 495q25 24 25 59t-25 58q-25 25-60 25t-60-25l-445-435-185 181q-25 24-60 24t-61-24q-24-24-24-59z" horiz-adv-x="920.4" />

<glyph glyph-name="right-big" unicode="&#xec07;" d="M821 314q0-30-20-50l-363-364q-22-20-51-20-29 0-50 20l-42 42q-22 21-22 51t22 51l163 163h-393q-29 0-47 21t-18 51v71q0 30 18 51t47 20h393l-163 165q-22 20-22 50t22 50l42 42q21 21 50 21 29 0 51-21l363-363q20-20 20-51z" horiz-adv-x="857.1" />

<glyph glyph-name="common_ic_care" unicode="&#xec08;" d="M453 845c8-8 18-24 16-46 0-10-4-21-10-31 85 0 174-27 241-94 4-3 8-7 11-12 13 4 27 5 41 5 89 0 161-70 161-156 0-83-65-150-149-156-10-31-22-55-31-69-43-64-109-105-175-126 17-19 35-45 46-80 13-42 14-70 10-99-3-25-37-29-49-9-1-54-14-92-17-100-6-13-19-22-37-22-17 0-33 7-38 20-5 12-8 35-8 46-6-2-17-2-24 0-2-25-8-43-11-50-4-7-15-14-27-15-12-2-37-4-50 27-9 21-12 55-12 93-13-19-46-15-49 9-3 30-2 58 11 100 11 35 30 62 47 82-76 25-156 78-193 163-5 9-9 19-14 30-80 9-143 75-143 156 0 86 72 156 161 156 14 0 27-1 40-4 3 4 7 8 11 11 52 52 135 87 223 93 4 6 7 14 7 23 0 18-6 23-14 33-7 10-4 18 1 23 4 4 16 7 24-1z" horiz-adv-x="913" />

<glyph glyph-name="attendance-1" unicode="&#xec09;" d="M1000 350l0 0c0 276-224 500-500 500-276 0-500-224-500-500 0-262 202-478 460-498 3-1 6-2 10-2 26 0 47 21 47 47 0 26-21 47-47 47-1 0-1 0-1 0l0 1c-210 16-375 191-375 405 0 224 182 406 406 406 223 0 404-180 406-402 0-2 0-3 0-5 0-25 21-46 47-46 26 0 47 21 47 46 0 1 0 1 0 1z m-501-271c-86 0-166 44-220 122-10 16-8 38 6 50 13 12 33 9 43-6 42-61 104-95 171-95 68 0 131 35 173 96 10 16 30 19 43 7 14-12 16-34 6-50-53-79-134-124-222-124z m-158 272c38 0 68 30 68 68 0 38-30 68-68 68-38 0-68-30-68-68 0-38 30-68 68-68z m318 0c38 0 68 30 68 68 0 38-30 68-68 68-38 0-68-30-68-68 0-38 30-68 68-68z m48-475l-98-26 28 91 280 267c19 18 50 18 69 0 19-19 19-48 0-66l-279-266z" horiz-adv-x="1000" />

<glyph glyph-name="medal" unicode="&#xec0a;" d="M500 850c-275 0-500-225-500-500s225-500 500-500 500 225 500 500-225 500-500 500z m0-906c-225 0-406 181-406 406s181 406 406 406 406-181 406-406-181-406-406-406z m56 215c-31 16-81 16-109 0l-63-34c-31-16-50 0-43 31l12 69c6 34-9 81-34 106l-50 50c-25 25-16 47 15 53l69 10c35 6 75 34 91 65l31 63c16 31 41 31 56 0l32-63c15-31 56-59 90-65l69-10c34-6 41-28 16-53l-50-47c-25-25-41-71-35-106l13-69c6-34-16-50-44-31l-66 31z" horiz-adv-x="1000" />

<glyph glyph-name="qrcode" unicode="&#xec0b;" d="M179 386h178c22 0 68-4 72 0 42 14 35 64 35 107v178c0 43 7 104-35 108h-322c-21-4-32-15-36-36v-322c8-42 65-35 108-35z m-36 321h250v-250h-250v250z m178-607c11 39-21 75-71 71-14-3-29-17-36-35-18-75 82-97 107-36z m572 679h-322c-46-8-35-61-35-108v-178c0-39-7-97 35-107-3 3 47 0 72 0h178c25 0 50-4 72 0 14 7 32 18 36 35v322c-4 21-11 32-36 36z m-36-322h-250v250h250v-250z m-143 72c93-15 93 121 0 107-50-11-50-97 0-107z m-464 107c-46-11-46-82 0-107 29-11 71 10 71 71 0 18-28 43-71 36z m607-322c-3-50 0-96 0-143h-71v143c-65 0-115 0-179 0-28 0-61 4-71-35-4-8 3-47 0-72v-178c3-43-7-100 35-108h36c4 75 4 175 0 250 29-3 54 0 72 0v-71h250c0 32-4 57 0 71v108c-4 35-36 35-72 35z m-393-285v178c0 39 7 93-35 107-11 4-50-3-72 0h-178c-25-3-61 4-72 0-25-7-32-18-36-35v-322c4-21 15-32 36-36h322c42 4 35 61 35 108z m-71-36h-250v250h250v-250z m428 36c0-29 4-79 0-108 22 0 61 0 72 0 21 4 32 15 36 36 0 14 0 54 0 72h-108z m-142-108h107v108h-107c0-29 3-79 0-108z" horiz-adv-x="1000" />

<glyph glyph-name="up-to-top" unicode="&#xec0c;" d="M554 575c0 0-4 4-4 4-29 28-71 28-100 0l-254-254c-28-29-28-75 0-100 29-29 72-29 100 0l133 132v-436c0-39 32-71 71-71 39 0 71 32 71 71v436l129-128c29-29 71-29 100 0 29 28 29 71 0 100l-246 246z m303 275h-714c-39 0-72-32-72-71 0-40 33-72 72-72h714c39 0 72 32 72 72 0 39-33 71-72 71z" horiz-adv-x="1000" />

<glyph glyph-name="play" unicode="&#xec0d;" d="M686 373l-286 195c-18 14-36 5-36-18v-404c0-28 18-37 36-19l286 196c23 13 23 36 0 50z m-186 477c-277 0-500-223-500-500s223-500 500-500 500 223 500 500-223 500-500 500z m0-909c-227 0-409 182-409 409s182 409 409 409 409-182 409-409-182-409-409-409z" horiz-adv-x="1000" />

<glyph glyph-name="enter" unicode="&#xec0e;" d="M850 382l-323 323c-18 18-45 18-63 0-18-19-18-46 0-64l245-245h-527c-27 0-46-19-46-46s19-45 46-45h527l-245-246c-18-18-18-45 0-64 18-18 45-18 63 0l323 323c18 18 18 46 0 64z" horiz-adv-x="1000" />

<glyph glyph-name="mobile" unicode="&#xec0f;" d="M500 77c27 0 46-18 46-45s-19-46-46-46-45 19-45 46 18 45 45 45z m318 773h-636c-50 0-91-41-91-91v-818c0-50 41-91 91-91h636c50 0 91 41 91 91v818c0 50-41 91-91 91z m0-864c0-22-18-45-45-45h-546c-27 0-45 18-45 45v137h636v-137z m0 228h-636v500c0 22 18 45 45 45h546c27 0 45-18 45-45v-500z" horiz-adv-x="1000" />

<glyph glyph-name="chat" unicode="&#xec10;" d="M964 421c0 218-207 393-464 393s-464-175-464-393 207-392 464-392v-143l321 250h-3c89 71 146 171 146 285z m-714-71c-39 0-71 32-71 71s32 72 71 72 71-32 71-72-32-71-71-71z m250 0c-39 0-71 32-71 71s32 72 71 72 71-32 71-72-32-71-71-71z m250 0c-39 0-71 32-71 71s32 72 71 72 71-32 71-72-32-71-71-71z" horiz-adv-x="1000" />

<glyph glyph-name="qq" unicode="&#xec11;" d="M925 146c-11 54-25 93-25 93s-21 68-36 100c-10 29-35 86-35 86s25 261-165 357c-10 4-21 11-32 14-57 22-146 36-253-10-186-97-165-357-165-357s-25-58-35-86c-15-32-36-100-36-100s-18-39-25-93c-11-54-4-100 7-96 25 3 86 100 86 100s-4-115 96-190c-71-14-89-39-89-57 0-21 71-18 161-18 50 0 96 0 128 7 11 0 22 0 29 0 32-7 78-7 132-7 89 0 161 0 161 18 0 14-18 39-90 57 100 75 97 190 97 190s60-97 85-100c8-8 11 35 4 92z" horiz-adv-x="1000" />

<glyph glyph-name="teacher-tick" unicode="&#xec12;" d="M448 22c-20-20-54-21-75-2l0 0-357 356c-21 22-21 57 0 78 22 22 57 22 79 0l314-314 472 472c21 21 56 21 78 0 22-22 22-57 0-79l-511-511 0 0z" horiz-adv-x="1000" />

<glyph glyph-name="teacher-mobile" unicode="&#xec13;" d="M688 663h-375v-500h375v500z m62 187h-500c-69 0-125-56-125-125v-750c0-69 56-125 125-125h500c69 0 125 56 125 125v750c0 69-56 125-125 125z m-187-938h-125v126h125v-126z m187 188h-500v625h500v-625z" horiz-adv-x="1000" />

<glyph glyph-name="nav-stick" unicode="&#xec14;" d="M438 788h125v-876h-125v876z" horiz-adv-x="1000" />

<glyph glyph-name="down-head" unicode="&#xec15;" d="M625 224c100-380-79-374-79-374-71 0-56 58-62 68 0 186-171 306-171 306l0 563c0 62 35 62 62 62l400 0c37 0 66-99 66-99 96-336 97-463 97-463 0-63-63-63-63-63l-250 0z m-559 0c-66 0-66 59-66 59l0 504c0 62 66 62 66 62l122 0c62 0 62-62 62-62l0-504c0-59-62-59-62-59l-122 0z" horiz-adv-x="1000" />

<glyph glyph-name="up-head" unicode="&#xec16;" d="M625 475c100 381-79 374-79 374-71 0-56-58-62-68 0-186-171-306-171-306l0-563c0-62 35-62 62-62l400 0c37 0 66 99 66 99 96 336 97 464 97 464 0 62-63 62-63 62l-250 0z m-559 0c-66 0-66-58-66-58l0-505c0-62 66-62 66-62l122 0c62 0 62 62 62 62l0 505c0 58-62 58-62 58l-122 0z" horiz-adv-x="1000" />

<glyph glyph-name="nav-arrow" unicode="&#xec17;" d="M393 207c-24-25-24-64 0-89 25-24 64-24 89 0l187 188c25 24 25 64 0 88l-187 188c-25 24-64 24-89 0-24-25-24-64 0-89l144-143-144-143z" horiz-adv-x="1000" />

<glyph glyph-name="up-to-top-1" unicode="&#xec18;" d="M776 674h-591c-39 0-70 31-70 70s31 71 70 71h591c39 0 71-32 71-71s-32-70-71-70z m-541-473l296 300c27 27 27 72-1 100-28 27-72 26-100-1l-295-300c-27-28-27-72 1-100 13-13 31-20 49-20 18 0 37 7 50 21z m602-12c27 28 28 72 0 100l-271 275c-27 28-72 29-100 1-27-27-28-72 0-100l271-275c14-14 32-21 50-21 18 0 36 7 50 20z m-286-274v615c0 39-31 71-70 71s-71-32-71-71v-615c0-39 32-70 71-70s70 31 70 70z" horiz-adv-x="1000" />

<glyph glyph-name="score-download" unicode="&#xec19;" d="M459 164c-5 2-9 4-12 8l-196 195c-12 12-12 32 0 45 12 12 32 12 44 0l143-143 0 487c0 17 14 32 31 32 17 0 31-15 31-32l0-489 146 142c12 11 32 11 44-1 12-12 12-32 0-44l-199-193c-2-2-5-3-7-4-4-3-10-4-15-4-4 0-7 0-10 1z m-459 91l0 0 0-217c0-69 56-126 125-126l688 0c69 0 125 57 125 126l0 217-1 0c0 0 0 0 0 0 0 17-14 31-31 31-17 0-31-14-31-31 0-2 0-3 0-5l0-212c0-35-28-63-62-63l-688 0c-34 0-62 28-62 63l0 217 0 0c0 0 0 1 0 1 0 18-14 32-31 32-18 0-32-14-32-32 0 0 0-1 0-1z" horiz-adv-x="1000" />

<glyph glyph-name="send-score-active" unicode="&#xec1a;" d="M963 783c0 0-915-442-941-454-26-13-35-44 5-56 39-12 278-84 278-84 8-2 16-2 24 5l439 372-322-379c-14-16-8-37 10-42 0 0 305-94 322-99 17-6 35 3 41 27 6 24 179 683 179 683 8 25-9 40-35 27l0 0z m-537-693c-10 3-18-3-18-14l0-150c0-13 16-21 29-3 10 14 97 111 97 111 5 9 3 20-9 24l-99 32z" horiz-adv-x="1000" />

<glyph glyph-name="subjects-delete" unicode="&#xec1b;" d="M558 343l303 303c14 14 14 37 0 51-14 13-37 14-51 0l-303-303-303 303c-14 14-37 14-51 0-13-14-14-37 0-51l303-303-303-303c-14-14-13-37 0-51 14-13 37-14 51 0l303 304 303-304c14-14 37-14 51 0 13 14 14 37 0 51l-303 303 0 0z" horiz-adv-x="1000" />

<glyph glyph-name="score-upload" unicode="&#xec1c;" d="M459 786c-5-2-9-4-12-8l-196-195c-12-12-12-32 0-45 12-11 32-12 44 0l143 143 0-487c0-17 14-31 31-31 17 0 31 14 31 31l0 489 146-141c12-12 32-12 44 0 12 12 12 32 0 44l-199 193c-2 2-5 3-7 5-4 2-10 4-15 4-4 0-7-1-10-2z m-459-531l0 0 0-217c0-69 56-126 125-126l688 0c69 0 125 57 125 126l0 217-1 0c0 0 0 0 0 0 0 17-14 31-31 31-17 0-31-14-31-31 0-2 0-3 0-5l0-212c0-35-28-63-62-63l-688 0c-34 0-62 28-62 63l0 217 0 0c0 0 0 1 0 1 0 18-14 32-31 32-18 0-32-14-32-32 0 0 0-1 0-1z" horiz-adv-x="1000" />

<glyph glyph-name="subjects-add" unicode="&#xec1d;" d="M536 386l0 428c0 20-16 36-36 36-19 0-36-16-36-36l0-428-428 0c-20 0-36-16-36-36 0-19 16-36 36-36l428 0 0-428c0-20 16-36 36-36 19 0 36 16 36 36l0 428 428 0c20 0 36 16 36 36 0 19-16 36-36 36l-428 0z" horiz-adv-x="1000" />

<glyph glyph-name="student-name" unicode="&#xec1e;" d="M732 376c-18-50-44-95-75-129l1 0c-22-23-31-79 9-99 41-20 221-111 274-143 54-33 49-96 9-125-41-30-194-30-194-30l-447 0c-165 0-190 22-209 35-20 13-53 76 0 120 53 43 178 109 260 143 66 28 29 75 13 92-1 1-1 2-2 2-3 3-5 5-5 5l1 0c-33 35-60 82-76 137-25 1-38 10-51 77-11 63 9 66 32 64 0 181 2 288 190 322 62 11 165-5 178-58 136 0 122-116 122-247 0-1 0-2 0-3 25-4 41-30 31-88-13-71-32-75-61-75z" horiz-adv-x="1000" />

<glyph glyph-name="send-score" unicode="&#xec1f;" d="M504 528c97 50 199 103 301 156 58 30 58 30 99 51 31 16 31 16 37 20 16 8 22 27 14 42-8 15-27 21-42 13-7-3-7-3-38-19-41-21-41-21-99-52-102-53-204-106-300-156-262-136-425-221-436-226-53-25-57-93 9-113 15-5 57-18 118-38 29-10 58-19 87-29 18-6 31-10 39-13 16-5 34 4 39 20 6 17-3 34-19 40-8 2-22 7-39 12-29 10-59 20-86 29-59 19-100 32-117 38 26 13 183 95 433 225z m422 205c-7-32-7-32-16-77-17-80-34-159-50-233-43-201-71-328-73-338-2-5-1-5-2-5-7 2-67 20-160 49-36 11-61 19-111 34-26 9-35 11-41 13l308 341c12 13 11 32-2 44-13 12-32 11-44-2l-314-347c-28-33-16-80 24-93 10-3 10-3 50-15 51-16 76-23 111-34 95-30 154-48 161-50 36-10 70 10 80 49 3 11 30 134 73 338 17 77 34 156 51 236 9 45 9 45 16 77 5 24 5 24 6 29 15 51-30 87-80 61-16-7-22-26-14-42 6-11 18-18 31-17-1-3-2-9-4-18z m-552-653l0-149c0-17 14-31 32-31 17 0 31 14 31 31l0 149c0 17-14 31-31 31-18 0-32-14-32-31z" horiz-adv-x="1000" />

<glyph glyph-name="delete" unicode="&#xec20;" d="M969 725h-281v50c0 44-32 75-69 75h-238c-37 0-68-31-68-75v-50h-282c-18 0-31-12-31-31 0-19 13-31 31-31h938c19 0 31 12 31 31 0 19-12 31-31 31z m-844-800c0-44 31-75 75-75h606c38 0 75 31 75 75v675h-756v-675z m500 550h63v-500h-63v500z m-312 0h62v-500h-62v500z" horiz-adv-x="1000" />

<glyph glyph-name="notice" unicode="&#xec21;" d="M482 213l-117 0 50-187c12-45-14-90-59-102-44-12-90 14-102 59l-56 210c-2 7-3 14-3 21-109 12-195 105-195 218 0 121 98 219 219 219l264 0 384 133c33 12 59-7 59-42l0-168c43-16 74-78 74-153 0-74-31-136-74-152l0-186c0-34-25-52-57-38l-387 168z" horiz-adv-x="1000" />

<glyph glyph-name="about" unicode="&#xec22;" d="M500-56c-224 0-406 182-406 406 0 224 182 406 406 406 224 0 406-182 406-406 0-224-182-406-406-406z m0 62c190 0 344 154 344 344 0 190-154 344-344 344-190 0-344-154-344-344 0-190 154-344 344-344z m0 500c-17 0-31 14-31 32 0 17 14 31 31 31 17 0 31-14 31-31 0-18-14-32-31-32z m0-62c17 0 31-14 31-31l0-282c0-17-14-31-31-31-17 0-31 14-31 31l0 282c0 17 14 31 31 31z" horiz-adv-x="1000" />

<glyph glyph-name="homework" unicode="&#xec23;" d="M825 850h-75v-375l-125 94-125-94v375h-387c-25 0-50-25-50-50v-900c0-25 25-50 50-50h712c25 0 50 25 50 50v12h-719c-18 0-31 13-31 32 0 18 13 31 31 31h719v825c0 25-25 50-50 50z" horiz-adv-x="1000" />

<glyph glyph-name="scanusers" unicode="&#xec24;" d="M279 50c-18-8-36-12-53-12-26 0-50 10-68 30-19 22-26 52-24 90l4 137c-11 16-56 80-78 109-1 1-2 2-3 3-2 2-3 5-5 8-20 34-26 69-16 99 11 32 38 55 76 67l134 41c2 1 3 2 3 1l67 109c24 38 56 56 90 56 32 0 62-17 85-44-1-1-2-2-2-4l-35-57c-5 8-10 15-13 19l-1 2c-11 14-23 21-34 21-11 0-22-6-33-24l-70-113c-8-12-21-22-37-28l-139-42c-19-6-28-14-32-25-4-10-1-25 11-45 0 1-1 2-2 3l3-3c0-1 1-3 4-7 0 1-1 2-1 3 32-43 86-118 90-130l3-7 0-7-4-150c-2-23 1-37 6-43 5-4 10-7 18-7 7 0 16 2 28 8l29 12-1-44c-1-9-1-18 0-26z m612 465c38-13 64-37 74-70 10-33 1-67-23-100l-87-118c-1-1-1-2-1-3l8-136c-3-78-48-111-100-111-13 0-27 2-43 8l-135 49c-1 1-3 1-3 1l-114-46c-18-9-37-14-55-14-25 0-48 10-66 29-19 22-26 52-23 89l3 140c-10 15-57 81-79 110-1 1-2 2-3 3-2 3-3 5-4 7-21 35-27 69-16 98 10 32 37 55 74 66l136 41c2 1 4 3 3 2l68 111c24 37 56 54 89 54 33 0 64-18 87-48l3-5c19-28 72-111 79-120 1-1 2-2 2-2l117-32c1 0 2 0 3 0 2-1 4-2 6-3z m-593-138c0 1 0 2-1 2 32-41 86-116 90-128l2-6 0-6-4-149c-1-23 2-38 8-44 5-6 11-8 19-8 8 0 17 2 30 8l117 47c16 6 32 6 46 0l135-49c9-3 16-5 22-5 22 0 36 11 37 48l-8 135c0 15 5 29 13 41l88 119c13 18 17 32 13 45-4 12-14 22-34 29-2 1-5 2-6 2 0 0 1 0 2-1l-122 33c-13 5-25 14-34 27-4 5-62 95-80 121l-1 3c-12 14-25 22-36 22-12 0-24-7-36-25l-68-112c-9-12-21-21-36-27l-137-41c-20-6-30-15-34-27-4-11-1-27 12-48-1 1-2 2-3 3l3-3c0 0 1-2 3-6z m-3 5l0 1 0 0c1-1 2-2 2-4 0 1-1 2-2 3z m574 75l-1 0-1 0c1 0 1 0 2 0z m3-1l4 0c-2 0-5 0-7 1l3-1z m-7 2c0 0-1 1-1 1 0 0 0 0 1-1l0 0z" horiz-adv-x="1000" />

<glyph glyph-name="upload-btn" unicode="&#xec25;" d="M833 600l0 125c0 23-18 42-41 42-23 0-42-19-42-42l0-125-125 0c-23 0-42-19-42-42 0-23 19-41 42-41l125 0 0-125c0-23 19-42 42-42 23 0 41 19 41 42l0 125 126 0c22 0 41 18 41 41 0 24-19 42-41 42l-126 0z m-333 0l-450 0c-28 0-50-22-50-49l0-569c0-27 22-49 50-49l734 0c27 0 49 22 49 49l0 285 0 0c0 2 0 4 0 6 0 23-18 42-41 42-23 0-42-19-42-42 0-2 0-4 1-6l-1 0 0-40c-61 36-185 79-334-30-140-101-269-60-333-26l0 346 417 0c23 0 42 18 42 41 0 23-19 42-42 42z m-250-333c46 0 83 37 83 83 0 46-37 83-83 83-46 0-83-37-83-83 0-46 37-83 83-83z" horiz-adv-x="1000" />

<glyph glyph-name="upload-bg" unicode="&#xec26;" d="M1125 291l0 434-1000 0 0-519c95-50 288-112 499 39 223 165 409 100 501 46z m-1125 485c0 41 33 74 74 74l1102 0c41 0 74-33 74-74l0-852c0-41-33-74-74-74l-1102 0c-41 0-74 33-74 74l0 852z m375-426c69 0 125 56 125 125 0 69-56 125-125 125-69 0-125-56-125-125 0-69 56-125 125-125z" horiz-adv-x="1250" />

<glyph glyph-name="eye" unicode="&#xec27;" d="M981 400c0 0-193 263-481 263s-481-263-481-263c-25-25-25-69 0-94 0 0 194-262 481-262s481 262 481 262c25 25 25 63 0 94z m-481-237c-106 0-194 81-194 187s88 188 194 188c106 0 194-82 194-188s-88-187-194-187z" horiz-adv-x="1000" />

<glyph glyph-name="criticism" unicode="&#xec28;" d="M708 683l0-566 18 18c16 16 42 16 59 0 16-17 16-43 0-59l-89-89c-16-16-42-16-59 0l-88 89c-16 16-16 42 0 59 16 16 43 16 59 0l17-18 0 566c0 23 19 42 42 42 23 0 41-19 41-42z m-375-520c-126 0-229 102-229 229 0 126 103 229 229 229 127 0 230-103 230-229 0-127-103-229-230-229z m0 41c104 0 188 84 188 188 0 103-84 187-188 187-103 0-187-84-187-187 0-104 84-188 187-188z m-62 229c-12 0-21 10-21 21 0 12 9 21 21 21 11 0 21-9 21-21 0-11-10-21-21-21z m125 0c-12 0-21 10-21 21 0 12 9 21 21 21 11 0 21-9 21-21 0-11-10-21-21-21z m-163-113c24 34 58 51 100 51 43 0 77-17 101-51 6-9 4-22-5-29-10-6-23-4-29 5-16 23-38 33-67 33-29 0-50-10-66-33-7-9-20-11-29-5-9 7-12 20-5 29z" horiz-adv-x="1000" />

<glyph glyph-name="praise-o" unicode="&#xec29;" d="M500 850c-275 0-500-225-500-500 0-275 225-500 500-500 275 0 500 225 500 500 0 275-225 500-500 500z m0-938c-244 0-437 194-437 438s193 438 437 438 438-194 438-438-194-438-438-438z m188 501c37 0 62 25 62 56v75c0 31-25 56-62 56s-63-25-63-56v-75c0-31 25-56 63-56z m-375 0c37 0 62 25 62 56v75c0 31-25 56-62 56-38 0-63-25-63-56v-75c0-31 25-56 63-56z m393-132c-50-62-125-100-206-100-81 0-156 38-206 100-13 19-38 19-50 7-19-13-19-38-6-50 62-82 162-132 262-132 106 0 200 50 263 132 12 18 12 37-7 50-12 12-37 12-50-7z" horiz-adv-x="1000" />

<glyph glyph-name="praise" unicode="&#xec2a;" d="M333 163c-126 0-229 102-229 229 0 126 103 229 229 229 127 0 230-103 230-229 0-127-103-229-230-229z m0 41c104 0 188 84 188 188 0 103-84 187-188 187-103 0-187-84-187-187 0-104 84-188 187-188z m-62 229c-12 0-21 10-21 21 0 12 9 21 21 21 11 0 21-9 21-21 0-11-10-21-21-21z m125 0c-12 0-21 10-21 21 0 12 9 21 21 21 11 0 21-9 21-21 0-11-10-21-21-21z m-163-95c-7 9-4 22 5 29 9 7 22 5 29-5 16-22 37-33 66-33 29 0 51 11 67 33 6 10 19 12 29 5 9-7 11-20 5-29-24-33-58-50-101-50-42 0-76 17-100 50z m475-221l18 18c16 16 42 16 59 0 16-17 16-43 0-59l-89-89c-16-16-42-16-59 0l-88 89c-16 16-16 42 0 59 16 16 43 16 59 0l17-18 0 566c0 23 19 42 42 42 23 0 41-19 41-42l0-566z" horiz-adv-x="1000" />

<glyph glyph-name="criticism-o" unicode="&#xec2b;" d="M500 850c-275 0-500-225-500-500 0-275 225-500 500-500 275 0 500 225 500 500 0 275-225 500-500 500z m0-938c-244 0-437 194-437 438s193 438 437 438 438-194 438-438-194-438-438-438z m188 501c37 0 62 25 62 56v75c0 31-25 56-62 56s-63-25-63-56v-75c0-31 25-56 63-56z m-375 0c37 0 62 25 62 56v75c0 31-25 56-62 56-38 0-63-25-63-56v-75c0-31 25-56 63-56z m450-244c-63 81-163 131-263 131-106 0-200-44-262-131-13-19-13-38 6-50 19-13 37-13 50 6 50 63 125 100 206 100 81 0 156-37 206-100 13-19 38-19 50-6 19 6 19 31 7 50l0 0z" horiz-adv-x="1000" />

<glyph glyph-name="sort" unicode="&#xec2c;" d="M542 767h-500c-25 0-42-17-42-42 0-25 17-42 42-42h500c25 0 41 17 41 42 0 25-16 42-41 42z m0-834h-500c-25 0-42-16-42-41 0-25 17-42 42-42h500c25 0 41 17 41 42 0 25-16 41-41 41z m0 417h-500c-25 0-42-17-42-42 0-25 17-41 42-41h500c25 0 41 16 41 41 0 25-16 42-41 42z m641 100l-175 375c-8 8-16 17-25 25-16 8-41 0-50-25l-183-375c-8-25 0-50 25-58 17-9 42 0 58 16l42 109h183l50-109c9-16 34-25 59-16 16 8 25 33 16 58z m-266 150l50 117 58-117h-108z m233-408c8 8 17 16 17 33 0 25-17 42-42 42h-333c-25 0-42-17-42-42 0-25 17-42 42-42h233l-242-241c0 0-8-9-8-9-17-8-25-25-25-41 0-25 17-42 42-42h333c25 0 42 17 42 42 0 25-17 41-42 41h-233l258 259c0-9 0 0 0 0z" horiz-adv-x="1167" />

<glyph glyph-name="sort-down" unicode="&#xec2d;" d="M909-132c-8-11-20-18-34-18-13 0-25 6-33 16l-174 174c-16 16-15 43 1 59 16 16 42 17 58 0l106-106 0 565c0 23 20 42 42 42 23 0 42-18 42-42l0-564 105 105c17 17 42 16 59 0 16-16 16-43 0-59l-172-172z m258 940c0-23-19-41-42-41l-1083 0c-23 0-42 19-42 41 0 23 18 42 42 42l1083 0c23 0 42-19 42-42z m-584-416c0-23-19-42-42-42l-499 0c-23 0-42 19-42 42 0 23 19 41 42 41l499 0c24 0 42-19 42-41z m-166-417c0-23-18-42-42-42l-333 0c-23 0-42 20-42 42 0 23 18 42 42 42l333 0c23 0 42-20 42-42z" horiz-adv-x="1167" />

<glyph glyph-name="export" unicode="&#xec2e;" d="M921 300c-28 29-85 50-121 50h-64l200-214h-215l-57-143h-250l-57 143h-214l200 214h-72c-35 0-92-21-121-50l-150-164 50-215c7-35 50-71 86-71h793c42 0 78 29 85 71l50 215-143 164z m-492 314v-264c0-36 28-71 71-71h71c43 0 72 28 72 71v264h64c43 0 50 22 22 50l-150 165c-29 28-72 28-100 0l-143-165c-29-28-15-50 21-50h72z" horiz-adv-x="1071" />

<glyph glyph-name="chart-pie" unicode="&#xec2f;" d="M500 279l-71 0 0 566c-243-35-429-243-429-495 0-276 224-500 500-500 252 0 460 186 495 429l-495 0 0 71 500 0c0 276-224 500-500 500l0-571z" horiz-adv-x="1000" />

<glyph glyph-name="report" unicode="&#xec30;" d="M750 725l-156 0 0 31c0 19-13 32-31 32l-94 0 0 31c0 19-16 31-31 31l-63 0c-19 0-31-12-31-31l0-31-94 0c-16 0-31-13-31-32l0-31-156 0c-35 0-63-28-63-62l0-751c0-34 28-62 63-62l687 0c34 0 63 28 63 62l0 751c0 34-29 62-63 62z m-31-781l-625 0 0 687 625 0 0-687z m-281 500l125 0c15 0 31 12 31 31 0 19-13 31-31 31l-125 0c-16 0-32-12-32-31 0-19 13-31 32-31z m0-94l125 0c15 0 31 13 31 31 0 19-13 32-31 32l-125 0c-16 0-32-13-32-32 0-18 13-31 32-31z m-188-156l313 0c15 0 31 12 31 31 0 19-13 31-31 31l-313 0c-16 0-31-12-31-31 0-19 12-31 31-31z m0-125l313 0c15 0 31 12 31 31 0 19-13 31-31 31l-313 0c-16 0-31-12-31-31 0-19 12-31 31-31z m47 281c43 0 78 35 78 78 0 43-35 78-78 78-43 0-78-35-78-78 0-43 35-78 78-78z" horiz-adv-x="813" />

<glyph glyph-name="honor" unicode="&#xec31;" d="M281 592c-25-18-46-40-62-67l0 75-63 0 0-125c0-32 13-62 33-84 3-34 14-66 31-93-73 25-126 95-126 177l0 125c0 35 28 63 62 63l125 0 0-71z m438 0l0 71 125 0c34 0 62-28 62-63l0-125c0-82-52-152-126-177 17 27 28 59 32 93 20 22 32 52 32 84l0 125-63 0 0-75c-16 27-37 49-62 67z m-438 102l0-250c0-104 84-188 188-188l62 0c104 0 188 84 188 188l0 250-438 0z m0 62l438 0c34 0 62-28 62-62l0-250c0-138-112-250-250-250l-62 0c-138 0-250 112-250 250l0 250c0 34 28 62 62 62z m157-562l0-63 125 0 0 63-125 0z m-63 62l250 0 0-187-250 0 0 187z m-31-187l0-63 312 0 0 63-312 0z m0 62l312 0c35 0 63-28 63-62l0-63c0-34-28-62-63-62l-312 0c-35 0-63 28-63 62l0 63c0 34 28 62 63 62z" horiz-adv-x="1000" />

<glyph glyph-name="attendence-2" unicode="&#xec32;" d="M188 631l625 0c34 0 62-28 62-62l0-500c0-35-28-63-62-63l-625 0c-35 0-63 28-63 63l0 500c0 34 28 62 63 62z m0-62l0-500 625 0 0 500-625 0z m187 187l250 0c17 0 31-14 31-31 0-17-14-31-31-31l-250 0c-17 0-31 14-31 31 0 17 14 31 31 31z m22-415l72-72 165 166c6 5 14 9 22 9 18 0 32-14 32-31 0-9-4-17-10-23l-187-187c-6-6-14-9-22-9-9 0-17 3-22 9l-94 94c-6 5-9 13-9 22 0 17 14 31 31 31 9 0 16-3 22-9z" horiz-adv-x="1000" />

<glyph glyph-name="sort-2" unicode="&#xec33;" d="M833 58l-150 0 183 182-1 0c6 7 10 17 10 27 0 23-19 41-42 41l-250 0c-23 0-41-18-41-41 0-23 18-42 41-42l149 0-175-176c-2-2-4-4-6-6l-1-1 0 0c-5-7-8-16-8-25 0-23 18-42 41-42l250 0c23 0 42 19 42 42 0 23-19 41-42 41z m36 398c4-7 6-14 6-23 0-23-19-41-42-41-19 0-35 13-40 30l-5 11-158 0-7-14c-2-3-3-6-5-8l-1-2 0 0c-7-11-20-17-34-17-23 0-41 18-41 41 0 10 3 18 8 25l119 238c5 17 21 29 39 29 15 0 28-8 36-20l0 0 2-3c0 0 0 0 0 0l123-246z m-198 61l75 0-37 75-38-75z m-629-417c0 23 19 42 41 42l334 0c23 0 41-19 41-42 0-23-19-42-41-42l-334 0c-23 0-41 19-41 42z m0 250c0 23 19 42 41 42l334 0c23 0 41-19 41-42 0-23-19-42-41-42l-334 0c-23 0-41 19-41 42z m0 250c0 23 19 42 41 42l334 0c23 0 41-19 41-42 0-23-19-42-41-42l-334 0c-23 0-41 19-41 42z" horiz-adv-x="1000" />

<glyph glyph-name="criticism-2" unicode="&#xec34;" d="M500 808c-253 0-458-205-458-458 0-253 205-458 458-458 253 0 458 205 458 458 0 253-205 458-458 458z m0-83c207 0 375-168 375-375 0-207-168-375-375-375-207 0-375 168-375 375 0 207 168 375 375 375z m-156-323c29 0 52 23 52 52 0 29-23 52-52 52-29 0-52-23-52-52 0-29 23-52 52-52z m312 0c29 0 52 23 52 52 0 29-23 52-52 52-28 0-52-23-52-52 0-29 24-52 52-52z m-157-95c-86 0-166-39-219-107-10-14-8-33 6-44 13-10 32-8 43 6 41 53 103 83 170 83 68 0 131-31 172-85 10-13 30-16 43-5 14 10 16 29 6 43-53 69-134 109-221 109z" horiz-adv-x="1000" />

<glyph glyph-name="group-action" unicode="&#xec35;" d="M234 433c-32 10-89 13-106 9-76-15-94-62-94-143 0-47 21-89 49-116-1 0 30-28-3-43-34-15-110-44-120-61-10-16 20-73 20-73l157 0c-9 42-23 114-11 131 16 25 111 66 166 88 6 2 10 5 14 7 3 7 6 15 8 23-7 9-22 15-22 15-39 35-55 101-58 163z m464 0c32 10 88 13 106 9 75-15 93-62 93-143 0-47-20-89-48-116 0 0-31-28 3-43 33-15 109-44 119-61 10-16-20-73-20-73l-156 0c9 42 22 114 11 131-17 25-112 66-167 88-6 2-10 5-14 7-3 7-5 15-8 23 7 9 22 15 22 15 40 35 55 101 59 163z m21-36l0 138-67-25c3-20 4-43 4-64 0-72-33-135-79-176-14-15-19-50 8-63 28-13 177-67 193-91 16-25-30-110-30-110l-556 0c0 0-49 85-32 110 16 24 141 69 197 91 55 23 4 65 4 65l1 0c-46 40-81 103-81 174 0 23 1 45 4 65l-160 58 344 125 344-125-63-23 0-149 29-29-45-44-44 44 29 29z" horiz-adv-x="1000" />

<glyph glyph-name="student-action" unicode="&#xec36;" d="M750 397l0 138-67-25c3-20 5-43 5-64 0-72-34-135-79-176-14-15-19-50 7-63 28-13 177-67 193-91 17-25-28-110-28-110l-562 0c0 0-44 85-28 110 16 24 142 69 197 91 55 23 4 65 4 65l1 0c-46 40-80 103-80 174 0 23 1 45 3 65l-160 58 344 125 344-125-63-23 0-149 29-29-44-44-45 44 29 29z" horiz-adv-x="1000" />

<glyph glyph-name="home-1" unicode="&#xec37;" d="M906 413l-66 0c0 9-4 19-12 25l-307 245c-12 10-30 10-42 0l-307-245c-8-6-12-15-12-25l-66 0c0 30 13 58 37 77l307 245c36 29 88 29 124 0l307-245c25-20 37-48 37-77z m-468-188l0-187 125 0 0 187-125 0z m0 63l125 0c34 0 62-28 62-63l0-187c0-35-28-63-62-63l-125 0c-35 0-63 28-63 63l0 187c0 35 28 63 63 63z m-250 62c0 17 14 31 31 31 17 0 31-14 31-31l0-281c0-17 14-31 31-31l438 0c17 0 31 14 31 31l0 281c0 17 14 31 31 31 18 0 32-14 32-31l0-281c0-52-42-94-94-94l-438 0c-51 0-93 42-93 94l0 281z" horiz-adv-x="1000" />

<glyph glyph-name="minimum-1" unicode="&#xec38;" d="M94 632c0 34 28 62 62 62l688 0c34 0 62-28 62-62l0-563c0-35-28-63-62-63l-688 0c-34 0-62 28-62 63l0 563z m62-1l0-562 688 0 0 562-688 0z m167-437l115 0c17 0 31-14 31-31 0-18-14-32-31-32l-188 0c-9 0-16 4-22 9-6 6-9 14-9 22l0 188c0 17 14 31 31 31 17 0 31-14 31-31l0-109 200 199c12 13 32 13 44 0 13-12 13-31 0-44l-202-202z" horiz-adv-x="1000" />

<glyph glyph-name="sort-by-score-1" unicode="&#xec39;" d="M792 58l0 10-9-10-116 84c-19 0-34 12-40 28l-2 2 1 1c0 3-1 7-1 10 0 23 19 42 42 42 3 0 7 0 10-1l1 1 4-3c6-2 12-6 16-12l94-66 0 456c0 23 18 42 41 42 23 0 42-19 42-42l0-542c0-23-19-41-42-41-23 0-41 18-41 41z m-625 42c0 23 19 42 41 42l167 0c23 0 42-19 42-42 0-23-19-42-42-42l-167 0c-23 0-41 19-41 42z m0 250c0 23 19 42 41 42l334 0c23 0 41-19 41-42 0-23-19-42-41-42l-334 0c-23 0-41 19-41 42z m0 250c0 23 19 42 41 42l417 0c23 0 42-19 42-42 0-23-19-42-42-42l-417 0c-23 0-41 19-41 42z" horiz-adv-x="1000" />

<glyph glyph-name="praise-2" unicode="&#xec3a;" d="M500 808c-253 0-458-205-458-458 0-253 205-458 458-458 253 0 458 205 458 458 0 253-205 458-458 458z m0-83c207 0 375-168 375-375 0-207-168-375-375-375-207 0-375 168-375 375 0 207 168 375 375 375z m-156-323c29 0 52 23 52 52 0 29-23 52-52 52-29 0-52-23-52-52 0-29 23-52 52-52z m312 0c29 0 52 23 52 52 0 29-23 52-52 52-28 0-52-23-52-52 0-29 24-52 52-52z m-157-254c87 0 168 40 221 109 10 13 8 33-6 43-13 11-33 8-43-6-41-53-104-84-172-84-67 0-129 30-170 83-11 14-30 16-43 5-14-10-16-30-6-43 53-68 133-107 219-107z" horiz-adv-x="1000" />

<glyph glyph-name="reverse" unicode="&#xec3b;" d="M786 305c-50 69-119 113-211 117l-81 4 0 174-369-231 369-208 0 152 42-1c89-1 165-18 228-51 27-14 52-37 79-71-13 42-32 81-57 115z m68 49c56-77 89-175 92-275 1-33-2-52-30-63-18-7-34-3-47 6-6 4-11 9-16 16-11 12-54 73-60 81-27 36-49 59-68 68-40 22-90 35-148 40l0-66c0-46-37-84-83-84-15 0-29 4-41 11l-369 209c-40 23-54 73-31 113 6 12 16 23 28 30l369 231c39 24 90 12 114-27 9-13 13-28 13-44l0-94c122-5 213-64 277-152z" horiz-adv-x="1000" />

<glyph glyph-name="out" unicode="&#xec3c;" d="M851 306l-110-111c-12-12-32-12-44 0-13 13-13 32 0 45l110 110-110 111c-13 12-13 32 0 44 12 12 32 12 44 0l132-133c13-12 13-32 0-44l-22-22z m-7 263l-63 0 0 94-562 0 0-625 562 0 0 93 63 0 0-125c0-17-14-31-31-31l-625 0c-18 0-32 14-32 31l0 688c0 17 14 31 32 31l625 0c17 0 31-14 31-31l0-125z m-125-219c0-17-14-31-31-31l-188 0c-17 0-31 14-31 31 0 17 14 31 31 31l188 0c17 0 31-14 31-31z" horiz-adv-x="1000" />

<glyph glyph-name="plus" unicode="&#xec3d;" d="M729 454q44 0 74-31t31-73-31-73-74-30l-208 3 0-212q0-43-30-73t-75-31-73 31-30 73l3 212-212-3q-44 0-74 30t-30 73 30 73 74 31l212 0-3 209q0 42 30 73t73 31 75-31 30-73l0-209 208 0z" horiz-adv-x="834" />

<glyph glyph-name="minus" unicode="&#xec3e;" d="M729 455q44 0 74-32t31-73-31-74-74-30l-625 0q-44 0-74 30t-30 74q0 43 31 74t73 31l625 0z" horiz-adv-x="834" />

<glyph glyph-name="ok-bold" unicode="&#xec3f;" d="M197 471c-43 44-113 45-157 2-44-43-46-113-3-157l368-379c43-45 114-45 158-1l682 688c44 43 43 114 0 157-44 43-114 43-157-1l-603-607-288 298z" horiz-adv-x="1278" />

<glyph glyph-name="attendance" unicode="&#xec40;" d="M188 631l625 0c34 0 62-28 62-62l0-500c0-35-28-63-62-63l-625 0c-35 0-63 28-63 63l0 500c0 34 28 62 63 62z m0-62l0-500 625 0 0 500-625 0z m187 187l250 0c17 0 31-14 31-31 0-17-14-31-31-31l-250 0c-17 0-31 14-31 31 0 17 14 31 31 31z m22-415l72-72 165 166c6 5 14 9 22 9 18 0 32-14 32-31 0-9-4-17-10-23l-187-187c-6-6-14-9-22-9-9 0-17 3-22 9l-94 94c-6 5-9 13-9 22 0 17 14 31 31 31 9 0 16-3 22-9z" horiz-adv-x="1000" />

<glyph glyph-name="report-order" unicode="&#xec41;" d="M0 777c0 40 33 73 73 73l787 0c41 0 73-33 73-73l0-854c0-40-33-73-73-73l-787 0c-40 0-73 33-73 73l0 854z m200-227c0-18 15-33 33-33l467 0c18 0 33 15 33 33 0 18-15 33-33 33l-467 0c-18 0-33-15-33-33z m0-200c0-18 15-33 33-33l467 0c18 0 33 15 33 33 0 18-15 33-33 33l-467 0c-18 0-33-15-33-33z m0-200c0-18 15-33 33-33l201 0c18 0 33 15 33 33 0 18-15 33-33 33l-201 0c-19 0-33-15-33-33z" horiz-adv-x="933" />

<glyph glyph-name="appraise-block" unicode="&#xec42;" d="M853-150l-776 0c-42 0-77 35-77 77l0 464c0 43 34 77 77 76l154-2c47 21 191 123 187 262l0 10 0 18c1 4 20 72 97 93 3 1 10 2 21 2 32 0 113 4 175-113 0 0 5-5 13-38 8-34 22-135-33-230l271 0c64 0 115-43 115-96l-1-5-108-426c-2-51-53-92-115-92z" horiz-adv-x="1077" />

<glyph glyph-name="exam" unicode="&#xec43;" d="M575-37l277 277c17 17 45 17 62 0 17-17 16-44-1-61l-307-308c-8-8-19-12-31-12-11 0-22 4-30 12l-154 154c-17 17-17 45 0 62 17 17 44 16 61-1l123-123z m208 293c-6-4-10-8-15-13l-185-185-69 68c-42 43-111 43-154 0-42-42-42-111 0-154l79-79-372 0c-37 0-67 30-67 67l0 824c0 36 30 66 67 66l649 0c37 0 67-30 67-66l0-528z m-609 246c24 0 43 20 43 44 0 24-19 43-43 43-24 0-44-19-44-43 0-24 20-44 44-44z m130 44c0-24 20-44 44-44l261 0c24 0 43 20 43 44 0 24-19 43-43 43l-261 0c-24 0-44-19-44-43z m-130-261c24 0 43 19 43 43 0 24-19 44-43 44-24 0-44-20-44-44 0-24 20-43 44-43z m0-218c24 0 43 20 43 44 0 24-19 43-43 43-24 0-44-19-44-43 0-24 20-44 44-44z m130 261c0-24 20-43 44-43l261 0c24 0 43 19 43 43 0 24-19 44-43 44l-261 0c-24 0-44-20-44-44z" horiz-adv-x="957" />

<glyph glyph-name="medal-report" unicode="&#xec44;" d="M227 759l0-91 364 0 0 91 182 0c25 0 45-21 45-45l0-819c0-25-20-45-45-45l-728 0c-25 0-45 21-45 45l0 819c0 25 20 45 45 45l182 0z m-45-409c0-25 20-45 45-45l364 0c25 0 45 20 45 45 0 25-20 46-45 46l-364 0c-24 0-45-21-45-46z m0-227c0-26 20-46 45-46l364 0c25 0 45 21 45 46 0 25-20 45-45 45l-364 0c-24 0-45-20-45-45z m91 682c0 25 20 45 45 45l182 0c25 0 46-20 46-45l0-91-273 0 0 91z" horiz-adv-x="818" />

<glyph glyph-name="star-o" unicode="&#xec45;" d="M0 350c0 276 224 500 500 500 276 0 500-224 500-500 0-276-224-500-500-500-276 0-500 224-500 500z m545-184l85-45c25-13 41-1 36 26l-16 95c-5 27 7 65 27 84l69 67c20 19 14 38-14 42l-95 14c-27 4-59 27-71 52l-43 86c-12 25-32 25-44 0l-43-86c-12-25-44-48-71-52l-95-14c-28-4-34-23-14-42l69-67c19-19 32-57 27-84l-16-95c-5-27 11-39 36-26l85 45c24 13 64 13 88 0z" horiz-adv-x="1000" />

<glyph glyph-name="appraise" unicode="&#xec46;" d="M500 850c-276 0-500-224-500-500 0-276 224-500 500-500 276 0 500 224 500 500 0 276-224 500-500 500l0 0z m186-773l-413 0c-25 0-46 21-46 46l0 274c0 25 20 46 46 45l91-1c28 12 112 72 110 155l0 6 0 10c1 2 12 43 58 55 1 0 5 1 12 1 19 0 67 3 103-66 0 0 3-3 8-23 5-20 13-80-20-136l115 0c38 0 68-25 68-57l0-3-64-251c-1-30-31-55-68-55z m-74 317c-15 0-29 10-35 24-7 15-6 24 4 40 17 29 26 76 20 109-6 33-42 57-57 46-15-12-12-20-14-35-11-128-117-175-118-179-1-5-1-12-1-13l0-263 263 0c16 0 21 10 21 11 2 7 3 8 4 11 0 0 62 235 59 246-3 5-15 3-21 3l-125 0z m-339 2l0-273 45 0 0 273-45 0z" horiz-adv-x="1000" />

<glyph glyph-name="quick-group" unicode="&#xec48;" d="M500 850l0 0c276 0 500-224 500-500l0 0c0-276-224-500-500-500-276 0-500 224-500 500l0 0 0 0c0 276 224 500 500 500l0 0z m2-429l90 231c4 8-7 14-13 8l-263-302c-8-11-1-26 13-26l149 0c5 0 9-6 7-11l-104-267c-5-13 12-22 20-12l283 343c8 10 1 26-12 26l-163 0c-5 0-9 5-7 10z" horiz-adv-x="1000" />

<glyph glyph-name="edit-score" unicode="&#xec49;" d="M833 475c0 23 19 42 42 42 23 0 42-19 42-42l0-417c0-69-56-125-125-125l-584 0c-69 0-125 56-125 125l0 584c0 69 56 125 125 125l375 0c23 0 42-19 42-42 0-23-19-42-42-42l-375 0c-23 0-41-18-41-41l0-584c0-23 18-41 41-41l584 0c23 0 41 18 41 41l0 417z m-500-250c-23 0-41 19-41 42 0 23 18 41 41 41l334 0c23 0 41-18 41-41 0-23-18-42-41-42l-334 0z m0 167c-23 0-41 18-41 41 0 23 18 42 41 42l125 0c23 0 42-19 42-42 0-23-19-41-42-41l-125 0z m471 363c16 16 43 16 59 0 16-17 16-43 0-59l-167-167c-16-16-42-16-59 0-16 16-16 43 0 59l167 167z" horiz-adv-x="1000" />

<glyph glyph-name="add-collection" unicode="&#xec4a;" d="M500-108c-253 0-458 205-458 458 0 253 205 458 458 458 253 0 458-205 458-458 0-253-205-458-458-458z m-42 500l-125 0c-23 0-41-19-41-42 0-23 18-42 41-42l125 0 0-125c0-23 19-41 42-41 23 0 42 18 42 41l0 125 125 0c23 0 41 19 41 42 0 23-18 42-41 42l-125 0 0 125c0 23-19 41-42 41-23 0-42-18-42-41l0-125z m42-417c207 0 375 168 375 375 0 207-168 375-375 375-207 0-375-168-375-375 0-207 168-375 375-375z" horiz-adv-x="1000" />

<glyph glyph-name="adjust-collection" unicode="&#xec4b;" d="M83 642c0 69 56 125 125 125l500 0c69 0 125-56 125-125l0-459c0-69-56-125-125-125l-500 0c-69 0-125 56-125 125l0 459z m84 0l0-459c0-23 18-41 41-41l500 0c23 0 42 18 42 41l0 459c0 23-19 41-42 41l-500 0c-23 0-41-18-41-41z m208-709c-23 0-42 19-42 42 0 23 19 42 42 42l375 0c69 0 125 56 125 125l0 375c0 23 19 41 42 41 23 0 41-18 41-41l0-375c0-115-93-209-208-209l-375 0z" horiz-adv-x="1000" />

<glyph glyph-name="minimum-2" unicode="&#xec4c;" d="M94 632c0 34 28 62 62 62l688 0c34 0 62-28 62-62l0-563c0-35-28-63-62-63l-688 0c-34 0-62 28-62 63l0 563z m62-1l0-562 688 0 0 562-688 0z m167-437l115 0c17 0 31-14 31-31 0-18-14-32-31-32l-188 0c-9 0-16 4-22 9-6 6-9 14-9 22l0 188c0 17 14 31 31 31 17 0 31-14 31-31l0-109 200 199c12 13 32 13 44 0 13-12 13-31 0-44l-202-202z" horiz-adv-x="1000" />

<glyph glyph-name="status-complete" unicode="&#xec4d;" d="M453 244l-125 125c-16 17-42 17-59 0-16-16-16-42 0-59l125-125c17-16 38-24 59-24 22 0 43 8 59 24l265 266c17 16 17 42 0 59l0 0c-16 16-42 16-59 0l0 0-265-266z m47-394c-276 0-500 224-500 500 0 276 224 500 500 500 276 0 500-224 500-500 0-276-224-500-500-500z" horiz-adv-x="1000" />

<glyph glyph-name="status-warning" unicode="&#xec4e;" d="M500-150c-276 0-500 224-500 500 0 276 224 500 500 500 276 0 500-224 500-500 0-276-224-500-500-500z m0 750c-34 0-62-28-62-62l0-250c0-35 28-63 62-63 35 0 63 28 63 63l0 250c0 34-28 62-63 62z m0-562c35 0 63 28 63 62 0 35-28 63-63 63-34 0-62-28-62-63 0-34 28-62 62-62z" horiz-adv-x="1000" />

<glyph glyph-name="report-1" unicode="&#xec4f;" d="M842 381c-11 125-89 233-203 284-16 7-23 25-16 41 7 16 26 23 41 16 146-65 242-210 242-372 0-224-182-406-406-406-224 0-406 182-406 406 0 224 182 406 406 406 17 0 31-14 31-31l0-344 311 0z m0-62l-373 0 0 373c-175-15-313-163-313-342 0-190 154-344 344-344 179 0 327 138 342 313z" horiz-adv-x="1000" />

<glyph glyph-name="classroom-setting" unicode="&#xec50;" d="M500 433c-46 0-83-37-83-83 0-46 37-83 83-83 46 0 83 37 83 83 0 46-37 83-83 83z m0 84c92 0 167-75 167-167 0-92-75-167-167-167-92 0-167 75-167 167 0 92 75 167 167 167z m-93 165c-14 11-32 12-47 4l-81-47c-14-8-23-25-20-42 6-42 3-75-12-101-13-24-38-42-72-57-2-1-5-2-9-3-16-6-27-22-27-39l0-93c0-18 11-33 27-39 39-16 66-35 81-61 15-26 18-59 12-101-3-17 6-34 20-42l81-47c15-8 33-7 47 4 33 26 63 40 93 40 30 0 61-14 93-40 14-11 32-12 47-4l81 47c15 8 23 25 20 42-6 42-3 75 12 101 15 26 42 45 81 61 16 6 27 21 27 39l0 93c0 17-11 32-27 38-39 16-66 35-81 61-15 26-18 59-12 101 3 17-5 34-20 42l-81 47c-15 8-33 7-47-4-32-26-63-40-93-40-30 0-60 14-93 40z m52 65c19-15 34-22 41-22 8 0 22 7 41 22 40 32 96 37 141 11l80-47c45-25 69-76 61-127-3-24-2-40 2-46 4-7 16-16 40-25 48-19 79-65 79-116l0-93c0-52-31-98-79-117-24-9-36-18-40-24-4-7-5-23-2-47 8-51-16-102-61-127l-80-47c-45-26-101-21-141 11-19 15-33 22-41 22-7 0-22-7-41-22-40-32-96-37-141-11l-80 47c-45 25-69 76-61 127 3 24 2 40-2 47-3 6-16 15-40 24-48 19-79 65-79 117l0 93c0 52 32 98 81 117 2 1 4 1 5 2 19 8 30 16 33 22 4 6 5 22 2 46-8 51 16 102 61 127l80 47c45 26 101 21 141-11z" horiz-adv-x="1000" />

<glyph glyph-name="help-1" unicode="&#xec51;" d="M500-56c-224 0-406 182-406 406 0 224 182 406 406 406 224 0 406-182 406-406 0-224-182-406-406-406z m0 62c190 0 344 154 344 344 0 190-154 344-344 344-190 0-344-154-344-344 0-190 154-344 344-344z m5 535c36 0 65-10 87-30 21-19 31-46 31-79 0-26-7-48-21-66-6-7-21-22-46-43-12-11-21-21-26-31-7-13-11-26-11-41l0-13-45 0 0 13c0 18 4 34 10 48 8 17 27 39 57 66 9 9 16 15 19 20 11 14 17 29 17 44 0 23-7 40-19 53-13 13-32 19-55 19-28 0-49-9-63-27-12-16-18-37-18-65l-45 0c0 40 11 71 34 95 22 24 54 37 94 37z m-8-343c9 0 18-3 24-9 7-7 10-14 10-24 0-10-3-18-10-24-7-6-15-10-24-10-10 0-18 4-25 10-6 7-9 14-9 24 0 10 3 17 9 24 7 6 15 9 25 9z" horiz-adv-x="1000" />

<glyph glyph-name="menu-1" unicode="&#xec52;" d="M188 631l625 0c17 0 31-14 31-31 0-17-14-31-31-31l-625 0c-18 0-32 14-32 31 0 17 14 31 32 31z m0-250l375 0c17 0 31-14 31-31 0-17-14-31-31-31l-375 0c-18 0-32 14-32 31 0 17 14 31 32 31z m0-250l500 0c17 0 31-14 31-31 0-17-14-31-31-31l-500 0c-18 0-32 14-32 31 0 17 14 31 32 31z" horiz-adv-x="1000" />

<glyph glyph-name="multi-persons-1" unicode="&#xec53;" d="M279 50c-18-8-36-12-53-12-26 0-50 10-68 30-19 22-26 52-24 90l4 137c-11 16-56 80-78 109-1 1-2 2-3 3-2 2-3 5-5 8-20 34-26 69-16 99 11 32 38 55 76 67l134 41c2 1 3 2 3 1l67 109c24 38 56 56 90 56 32 0 62-17 85-44-1-1-2-2-2-4l-35-57c-5 8-10 15-13 19l-1 2c-11 14-23 21-34 21-11 0-22-6-33-24l-70-113c-8-12-21-22-37-28l-139-42c-19-6-28-14-32-25-4-10-1-25 11-45 0 1-1 2-2 3l3-3c0-1 1-3 4-7 0 1-1 2-1 3 32-43 86-118 90-130l3-7 0-7-4-150c-2-23 1-37 6-43 5-4 10-7 18-7 7 0 16 2 28 8l29 12-1-44c-1-9-1-18 0-26z m612 465c38-13 64-37 74-70 10-33 1-67-23-100l-87-118c-1-1-1-2-1-3l8-136c-3-78-48-111-100-111-13 0-27 2-43 8l-135 49c-1 1-3 1-3 1l-114-46c-18-9-37-14-55-14-25 0-48 10-66 29-19 22-26 52-23 89l3 140c-10 15-57 81-79 110-1 1-2 2-3 3-2 3-3 5-4 7-21 35-27 69-16 98 10 32 37 55 74 66l136 41c2 1 4 3 3 2l68 111c24 37 56 54 89 54 33 0 64-18 87-48l3-5c19-28 72-111 79-120 1-1 2-2 2-2l117-32c1 0 2 0 3 0 2-1 4-2 6-3z m-593-138c0 1 0 2-1 2 32-41 86-116 90-128l2-6 0-6-4-149c-1-23 2-38 8-44 5-6 11-8 19-8 8 0 17 2 30 8l117 47c16 6 32 6 46 0l135-49c9-3 16-5 22-5 22 0 36 11 37 48l-8 135c0 15 5 29 13 41l88 119c13 18 17 32 13 45-4 12-14 22-34 29-2 1-5 2-6 2 0 0 1 0 2-1l-122 33c-13 5-25 14-34 27-4 5-62 95-80 121l-1 3c-12 14-25 22-36 22-12 0-24-7-36-25l-68-112c-9-12-21-21-36-27l-137-41c-20-6-30-15-34-27-4-11-1-27 12-48-1 1-2 2-3 3l3-3c0 0 1-2 3-6z m-3 5l0 1 0 0c1-1 2-2 2-4 0 1-1 2-2 3z m574 75l-1 0-1 0c1 0 1 0 2 0z m3-1l4 0c-2 0-5 0-7 1l3-1z m-7 2c0 0-1 1-1 1 0 0 0 0 1-1l0 0z" horiz-adv-x="1000" />

<glyph glyph-name="back" unicode="&#xec54;" d="M287 381l79 80c12 12 12 32 0 44-12 12-32 12-44 0l-133-133c-12-12-12-32 0-44l22-22 111-111c12-12 32-12 44 0 12 13 12 32 0 45l-79 79 557 0c17 0 31 14 31 31 0 17-14 31-31 31l-557 0z" horiz-adv-x="1000" />

<glyph glyph-name="timer" unicode="&#xec55;" d="M531 363l102-101c12-13 12-32 0-45-13-12-32-12-45 0l-110 111c-6 6-9 13-9 22l0 219c0 17 14 31 31 31 17 0 31-14 31-31l0-206z m321-216c-9-15-28-20-43-12-15 9-20 28-11 43 95 165 38 375-126 470-164 95-375 38-470-126-95-164-38-375 126-470 119-68 266-59 375 20 14 11 33 8 44-6 10-14 7-34-7-44-129-94-303-105-443-24-194 112-261 361-149 555 112 194 361 261 555 149 194-112 261-361 149-555z" horiz-adv-x="1000" />

<glyph glyph-name="back-2" unicode="&#xec56;" d="M298 372l145 251c12 20 37 27 57 16 20-12 27-37 15-57l-134-232 134-232c12-20 5-45-15-57-20-11-45-4-57 16l-145 252c-4 6-6 13-6 21 0 8 2 15 6 22z" horiz-adv-x="1000" />

<glyph glyph-name="narrow-down-2" unicode="&#xec57;" d="M479 231l-180 104c-20 11-27 37-15 57 11 20 37 26 56 15l160-92 160 92c20 11 45 5 57-15 11-20 4-46-16-57l-179-104c-7-4-14-6-22-6-8 0-15 2-21 6z" horiz-adv-x="1000" />

<glyph glyph-name="nav-arrow-1" unicode="&#xec58;" d="M479 231l-180 104c-20 11-27 37-15 57 11 20 37 26 56 15l160-92 160 92c20 11 45 5 57-15 11-20 4-46-16-57l-179-104c-7-4-14-6-22-6-8 0-15 2-21 6z" horiz-adv-x="1000" />

<glyph glyph-name="honor-student" unicode="&#xec59;" d="M500 319c-121 0-219 98-219 219 0 120 98 218 219 218 121 0 219-98 219-218 0-121-98-219-219-219z m0 62c86 0 156 70 156 157 0 86-70 156-156 156-86 0-156-70-156-156 0-87 70-157 156-157z m0-62c-105 0-198-66-233-165l-23-64c-3-7-4-14-4-21 0-35 28-63 62-63l396 0c7 0 14 2 21 4 32 12 49 47 38 80l-23 64c-36 99-129 165-234 165z m0 62c131 0 248-82 292-206l23-64c24-65-10-137-75-160-14-5-28-7-42-7l-396 0c-69 0-125 56-125 125 0 14 3 28 8 42l23 64c44 124 161 206 292 206z" horiz-adv-x="1000" />

<glyph glyph-name="random" unicode="&#xec5a;" d="M557 387c-3 5-7 10-14 19-9 11-17 22-25 31 19 24 36 43 54 60 54 54 128 80 220 80l-64 63c-6 6-9 14-9 23 0 17 14 31 31 31 9 0 16-4 22-9l125-125c6-6 9-14 9-22 0-18-14-32-31-32-2 0-4 0-6 1-115 19-199 0-253-54-18-18-36-38-59-66z m-100-125c-55-66-87-99-127-125-68-45-136-68-205-68-17 0-31 14-31 31 0 17 14 31 31 31 56 0 113 19 170 58 36 23 67 55 122 124 1-2 2-3 3-4 9-12 14-17 19-24 6-8 12-15 18-23z m412-69c2 1 4 1 6 1 17 0 31-14 31-31 0-9-3-17-9-23l-126-126 0 0c-6-5-13-8-21-8-17 0-31 14-31 32 0 8 3 15 8 20l0 0 65 66c-92-1-166 25-220 79-29 28-56 60-96 111-6 7-10 12-19 24-82 104-119 145-162 174-57 38-114 57-170 57-17 0-31 14-31 31 0 17 14 31 31 31 69 0 137-23 205-67 51-34 89-77 176-187 9-12 13-17 19-24 39-49 65-80 91-106 54-54 138-73 253-54z" horiz-adv-x="1000" />

<glyph glyph-name="care-2" unicode="&#xec5b;" d="M500-108c-253 0-458 205-458 458 0 253 205 458 458 458 253 0 458-205 458-458 0-253-205-458-458-458z m0 83c207 0 375 168 375 375 0 207-168 375-375 375-207 0-375-168-375-375 0-207 168-375 375-375z m262 169c-18-23-40-44-64-62-27 83-106 143-198 143-92 0-171-60-198-143-24 18-46 39-64 62 47 97 147 164 262 164 115 0 215-67 262-164z m-262 81c-115 0-208 93-208 208 0 115 93 209 208 209 115 0 208-94 208-209 0-115-93-208-208-208z m0 83c69 0 125 56 125 125 0 69-56 125-125 125-69 0-125-56-125-125 0-69 56-125 125-125z" horiz-adv-x="1000" />

<glyph glyph-name="reset-1" unicode="&#xec5c;" d="M831 412c-29 160-169 282-338 282-132 0-251-76-309-192-7-16-26-22-41-15-16 8-22 27-15 42 68 138 209 227 365 227 211 0 384-160 404-365l22 22c12 12 32 12 44 0 13-13 13-32 0-45l-66-66c-12-12-32-12-44 0l-66 66c-13 13-13 32 0 45 12 12 32 12 44 0l0-1z m-668-131c32-157 171-275 337-275 132 0 251 76 309 193 7 15 26 21 42 14 15-8 21-27 14-42-68-138-209-227-365-227-205 0-374 151-402 348l-17-17c-12-13-32-13-44 0-13 12-13 32 0 44l66 66c12 12 32 12 44 0l66-66c13-12 13-32 0-44-12-13-32-13-44 0l-6 6z" horiz-adv-x="1000" />

<glyph glyph-name="home-2" unicode="&#xec5d;" d="M906 413l-66 0c0 9-4 19-12 25l-307 245c-12 10-30 10-42 0l-307-245c-8-6-12-15-12-25l-66 0c0 30 13 58 37 77l307 245c36 29 88 29 124 0l307-245c25-20 37-48 37-77z m-468-188l0-187 125 0 0 187-125 0z m0 63l125 0c34 0 62-28 62-63l0-187c0-35-28-63-62-63l-125 0c-35 0-63 28-63 63l0 187c0 35 28 63 63 63z m-250 62c0 17 14 31 31 31 17 0 31-14 31-31l0-281c0-17 14-31 31-31l438 0c17 0 31 14 31 31l0 281c0 17 14 31 31 31 18 0 32-14 32-31l0-281c0-52-42-94-94-94l-438 0c-51 0-93 42-93 94l0 281z" horiz-adv-x="1000" />

<glyph glyph-name="time-sort" unicode="&#xec5e;" d="M919 338c0-17-14-31-32-31-17 0-31 14-31 31 0 190-154 344-344 344-190 0-343-154-343-344 0-190 153-344 343-344 37 0 74 6 108 17 16 6 34-3 39-20 6-16-3-34-19-39-41-14-84-21-128-21-224 0-406 182-406 407 0 224 182 406 406 406 225 0 407-182 407-406z m-285-100l-106 106 0 213c0 8-7 15-16 15-8 0-15-7-15-15l0-219c0-4 1-8 4-11l111-111c6-6 16-6 22 0 6 6 6 16 0 22z m147-107l0 63c0 17 14 31 32 31 17 0 31-14 31-31l0-63 62 0c18 0 32-14 32-31 0-17-14-31-32-31l-62 0 0-63c0-17-14-31-31-31-18 0-32 14-32 31l0 63-62 0c-17 0-31 14-31 31 0 17 14 31 31 31l62 0z" horiz-adv-x="1000" />

<glyph glyph-name="sort-type-score" unicode="&#xec5f;" d="M708 117l18 18c16 16 42 16 59 0 16-17 16-43 0-59l-89-89c-16-16-42-16-59 0l-88 89c-16 16-16 42 0 59 16 16 43 16 59 0l17-18 0 566c0 23 19 42 42 42 23 0 41-19 41-42l0-566z m-506 417l161 0c17 24 32 50 44 78l28-11c-13-26-26-49-40-67l70 0 0-136-263 0 0 136z m233-108l0 79-203 0 0-79 203 0z m-182 184c16-19 31-40 45-62l-25-13c-14 24-29 44-45 63l25 12z m-68-247l28-6c-10-44-25-82-45-113l-25 16c19 31 33 66 42 103z m157 18c15-21 28-44 40-69l-28-12c-11 27-24 51-39 73l27 8z m131-10c19-31 35-66 49-102l-28-12c-15 40-31 75-50 105l29 9z m-80-141l-106 0c-27 0-39 15-39 42l0 88 30 0 0-82c0-13 6-19 18-19l92 0c9 0 15 2 19 7 5 7 8 24 9 53l29-9c-3-37-9-61-17-70-8-6-19-10-35-10z" horiz-adv-x="1000" />

<glyph glyph-name="sort-type-name" unicode="&#xec60;" d="M318 671l0 0c9 0 18-5 22-14l82-210c2-5-1-11-6-13-1 0-2-1-3-1l0 0c-9 0-17 6-21 14l-20 53-109 0-20-53c-3-8-11-14-20-14l0 0c-5 0-10 5-10 10 0 2 0 3 1 4l82 210c4 9 12 14 22 14z m-46-148l92 0-45 119-2 0-45-119z m-33-227l150 0c6 0 11-5 11-11l0 0c0-7-2-14-7-20l-141-183 144 0c7 0 12-5 12-12l0 0c0-6-5-12-12-12l-168 0c-6 0-11 5-11 12l0 0c0 7 2 14 7 20l141 183-126 0c-7 0-12 5-12 12l0 0c0 6 5 11 12 11z m469-179l18 18c16 16 42 16 59 0 16-17 16-43 0-59l-89-89c-16-16-42-16-59 0l-88 89c-16 16-16 42 0 59 16 16 43 16 59 0l17-18 0 566c0 23 19 42 42 42 23 0 41-19 41-42l0-566z" horiz-adv-x="1000" />

<glyph glyph-name="honor-random" unicode="&#xec61;" d="M557 387c-3 5-7 10-14 19-9 11-17 22-25 31 19 24 36 43 54 60 54 54 128 80 220 80l-64 63c-6 6-9 14-9 23 0 17 14 31 31 31 9 0 16-4 22-9l125-125c6-6 9-14 9-22 0-18-14-32-31-32-2 0-4 0-6 1-115 19-199 0-253-54-18-18-36-38-59-66z m-100-125c-55-66-87-99-127-125-68-45-136-68-205-68-17 0-31 14-31 31 0 17 14 31 31 31 56 0 113 19 170 58 36 23 67 55 122 124 1-2 2-3 3-4 9-12 14-17 19-24 6-8 12-15 18-23z m412-69c2 1 4 1 6 1 17 0 31-14 31-31 0-9-3-17-9-23l-126-126 0 0c-6-5-13-8-21-8-17 0-31 14-31 32 0 8 3 15 8 20l0 0 65 66c-92-1-166 25-220 79-29 28-56 60-96 111-6 7-10 12-19 24-82 104-119 145-162 174-57 38-114 57-170 57-17 0-31 14-31 31 0 17 14 31 31 31 69 0 137-23 205-67 51-34 89-77 176-187 9-12 13-17 19-24 39-49 65-80 91-106 54-54 138-73 253-54z" horiz-adv-x="1000" />

<glyph glyph-name="change-theme" unicode="&#xec62;" d="M235 632l-161-187 82-82 63 62 0-419 562 0 0 419 63-62 81 81-188 188-125 0c-26-41-64-63-112-63-48 0-85 22-110 63l-155 0z m-79-332c-16 0-32 7-44 19l-82 82c-23 23-25 60-3 85l160 187c12 14 29 22 48 22l194 0 8-19c14-31 34-45 63-45 29 0 50 14 66 46l8 18 163 0c17 0 33-7 44-19l188-188c24-24 24-64 0-88l-81-81c-12-12-28-19-44-19l0-294c0-34-28-62-63-62l-562 0c-35 0-63 28-63 62l0 294z" horiz-adv-x="1000" />

<glyph glyph-name="close" unicode="&#xec63;" d="M262 171l0 0 179 179-180 180 0 0c-7 8-11 17-11 28 0 23 19 42 42 42 12 0 23-5 30-13l178-178 178 178c7 8 18 13 30 13 23 0 42-19 42-42 0-11-4-20-11-28l0 0-180-180 179-179 0 0c8-8 12-18 12-29 0-23-19-42-42-42-13 0-24 6-32 16l-176 175-176-175c-7-10-19-16-32-16-23 0-42 19-42 42 0 11 5 21 12 29z" horiz-adv-x="1000" />

<glyph glyph-name="search" unicode="&#xec64;" d="M367 180c0-1-1-1-1-2l-236-235c-16-17-43-17-59 0-16 16-16 42 0 59l236 235c1 2 3 3 4 4-38 54-61 121-61 192 0 184 149 334 333 334 184 0 334-150 334-334 0-184-150-333-334-333-82 0-158 30-216 80z m216 3c138 0 250 112 250 250 0 138-112 250-250 250-138 0-250-112-250-250 0-138 112-250 250-250z" horiz-adv-x="1000" />

<glyph glyph-name="praise-report" unicode="&#xec65;" d="M500 850c276 0 500-224 500-500 0-276-224-500-500-500-276 0-500 224-500 500 0 276 224 500 500 500z m264-612c12 17 9 40-7 52-16 13-39 10-52-7-49-64-124-101-206-101-80 0-155 36-204 100-13 16-36 19-52 6-17-13-19-36-7-52 64-81 160-128 263-128 105 0 201 47 265 130z m-451 175c34 0 62 28 62 62 0 35-28 63-62 63-35 0-63-28-63-63 0-34 28-62 63-62z m375 0c34 0 62 28 62 62 0 35-28 63-62 63-35 0-63-28-63-63 0-34 28-62 63-62z" horiz-adv-x="1000" />

<glyph glyph-name="criticism-report" unicode="&#xec66;" d="M500 850c276 0 500-224 500-500 0-276-224-500-500-500-276 0-500 224-500 500 0 276 224 500 500 500z m-187-437c34 0 62 28 62 62 0 35-28 63-62 63-35 0-63-28-63-63 0-34 28-62 63-62z m375 0c34 0 62 28 62 62 0 35-28 63-62 63-35 0-63-28-63-63 0-34 28-62 63-62z m76-246c-64 83-160 131-265 131-103 0-199-47-263-128-12-16-10-40 7-52 16-13 39-10 52 6 49 63 124 100 204 100 82 0 157-37 206-102 13-16 36-19 52-7 16 13 19 36 7 52l0 0z" horiz-adv-x="1000" />

<glyph glyph-name="reverse-1" unicode="&#xec67;" d="M366 517l69 55c27 22 31 61 10 88-22 27-61 31-88 10l-208-167c-47-37-21-111 39-111l375 0c80 0 145-49 145-104 0-80-70-146-145-146l-292 0c-35 0-63-28-63-63 0-34 28-62 63-62l292 0c143 0 270 121 270 271 0 133-128 229-270 229l-197 0z" horiz-adv-x="1000" />

<glyph glyph-name="theme-ok" unicode="&#xec68;" d="M18 421l-4-5c-23-24-23-61 0-85l332-359c11-13 31-13 44-2 0 1 1 1 2 2l595 644c22 24 22 61 0 84l-5 5c-22 25-60 26-84 4-2-1-3-2-4-4l-502-543c-12-13-32-14-45-2 0 0-1 1-1 2l-240 259c-23 24-60 26-84 3-2-1-3-2-4-3z" horiz-adv-x="1000" />
</font>
</defs>
</svg>
